<mxfile host="app.diagrams.net" agent="Mozilla/5.0 (Macintosh; Intel Mac OS X 10_15_7) AppleWebKit/605.1.15 (KHTML, like Gecko) Version/18.6 Safari/605.1.15" version="28.2.3">
  <diagram name="Страница — 2" id="oJDA_zJ75NJ7X2v0WVPj">
    <mxGraphModel dx="4860" dy="1727" grid="1" gridSize="10" guides="1" tooltips="1" connect="1" arrows="1" fold="1" page="1" pageScale="1" pageWidth="827" pageHeight="1169" math="0" shadow="0">
      <root>
        <mxCell id="0" />
        <mxCell id="1" parent="0" />
        <mxCell id="gldtsVEIOEpTuRQxnS90-1" value="" style="rounded=0;whiteSpace=wrap;html=1;fillColor=none;" vertex="1" parent="1">
          <mxGeometry x="200" y="2254" width="1380" height="1580" as="geometry" />
        </mxCell>
        <mxCell id="gldtsVEIOEpTuRQxnS90-2" value="Партнёр" style="text;html=1;align=center;verticalAlign=middle;resizable=0;points=[];autosize=1;strokeColor=none;fillColor=none;" vertex="1" parent="1">
          <mxGeometry x="399" y="2199" width="70" height="30" as="geometry" />
        </mxCell>
        <mxCell id="gldtsVEIOEpTuRQxnS90-3" style="edgeStyle=orthogonalEdgeStyle;rounded=0;orthogonalLoop=1;jettySize=auto;html=1;exitX=1;exitY=0.5;exitDx=0;exitDy=0;" edge="1" parent="1" source="gldtsVEIOEpTuRQxnS90-5" target="gldtsVEIOEpTuRQxnS90-10">
          <mxGeometry relative="1" as="geometry" />
        </mxCell>
        <mxCell id="gldtsVEIOEpTuRQxnS90-4" value="НА СОГЛАСОВАНИЕ" style="edgeLabel;html=1;align=center;verticalAlign=middle;resizable=0;points=[];" vertex="1" connectable="0" parent="gldtsVEIOEpTuRQxnS90-3">
          <mxGeometry x="-0.2563" y="-6" relative="1" as="geometry">
            <mxPoint as="offset" />
          </mxGeometry>
        </mxCell>
        <mxCell id="gldtsVEIOEpTuRQxnS90-5" value="Формирование заявки" style="rounded=1;whiteSpace=wrap;html=1;" vertex="1" parent="1">
          <mxGeometry x="384" y="2389" width="120" height="60" as="geometry" />
        </mxCell>
        <mxCell id="gldtsVEIOEpTuRQxnS90-6" value="" style="endArrow=none;html=1;rounded=0;" edge="1" parent="1">
          <mxGeometry width="50" height="50" relative="1" as="geometry">
            <mxPoint x="744" y="3579" as="sourcePoint" />
            <mxPoint x="744" y="2199" as="targetPoint" />
          </mxGeometry>
        </mxCell>
        <mxCell id="gldtsVEIOEpTuRQxnS90-7" value="Менеджер" style="text;html=1;align=center;verticalAlign=middle;resizable=0;points=[];autosize=1;strokeColor=none;fillColor=none;" vertex="1" parent="1">
          <mxGeometry x="877" y="2189" width="80" height="30" as="geometry" />
        </mxCell>
        <mxCell id="gldtsVEIOEpTuRQxnS90-8" style="edgeStyle=orthogonalEdgeStyle;rounded=0;orthogonalLoop=1;jettySize=auto;html=1;exitX=0.25;exitY=1;exitDx=0;exitDy=0;entryX=0.5;entryY=1;entryDx=0;entryDy=0;" edge="1" parent="1" source="gldtsVEIOEpTuRQxnS90-10" target="gldtsVEIOEpTuRQxnS90-5">
          <mxGeometry relative="1" as="geometry">
            <Array as="points">
              <mxPoint x="887" y="2519" />
              <mxPoint x="444" y="2519" />
            </Array>
          </mxGeometry>
        </mxCell>
        <mxCell id="gldtsVEIOEpTuRQxnS90-9" value="Уточнение требований" style="edgeLabel;html=1;align=center;verticalAlign=middle;resizable=0;points=[];" vertex="1" connectable="0" parent="gldtsVEIOEpTuRQxnS90-8">
          <mxGeometry x="0.0233" y="-1" relative="1" as="geometry">
            <mxPoint as="offset" />
          </mxGeometry>
        </mxCell>
        <mxCell id="gldtsVEIOEpTuRQxnS90-10" value="Согласование заявки" style="rounded=1;whiteSpace=wrap;html=1;" vertex="1" parent="1">
          <mxGeometry x="857" y="2389" width="120" height="60" as="geometry" />
        </mxCell>
        <mxCell id="gldtsVEIOEpTuRQxnS90-11" style="edgeStyle=orthogonalEdgeStyle;rounded=0;orthogonalLoop=1;jettySize=auto;html=1;exitX=0.5;exitY=1;exitDx=0;exitDy=0;entryX=0.5;entryY=0;entryDx=0;entryDy=0;" edge="1" parent="1" source="gldtsVEIOEpTuRQxnS90-13" target="gldtsVEIOEpTuRQxnS90-26">
          <mxGeometry relative="1" as="geometry" />
        </mxCell>
        <mxCell id="gldtsVEIOEpTuRQxnS90-12" value="Отмена заявки" style="edgeLabel;html=1;align=center;verticalAlign=middle;resizable=0;points=[];" vertex="1" connectable="0" parent="gldtsVEIOEpTuRQxnS90-11">
          <mxGeometry x="-0.3354" relative="1" as="geometry">
            <mxPoint as="offset" />
          </mxGeometry>
        </mxCell>
        <mxCell id="gldtsVEIOEpTuRQxnS90-13" value="Не согласовано" style="rounded=1;whiteSpace=wrap;html=1;" vertex="1" parent="1">
          <mxGeometry x="384" y="2605" width="120" height="60" as="geometry" />
        </mxCell>
        <mxCell id="gldtsVEIOEpTuRQxnS90-14" style="edgeStyle=orthogonalEdgeStyle;rounded=0;orthogonalLoop=1;jettySize=auto;html=1;entryX=1;entryY=0.5;entryDx=0;entryDy=0;" edge="1" parent="1" source="gldtsVEIOEpTuRQxnS90-17" target="gldtsVEIOEpTuRQxnS90-19">
          <mxGeometry relative="1" as="geometry" />
        </mxCell>
        <mxCell id="gldtsVEIOEpTuRQxnS90-15" value="Истечение срока" style="edgeLabel;html=1;align=center;verticalAlign=middle;resizable=0;points=[];" vertex="1" connectable="0" parent="gldtsVEIOEpTuRQxnS90-14">
          <mxGeometry x="0.1795" y="-2" relative="1" as="geometry">
            <mxPoint as="offset" />
          </mxGeometry>
        </mxCell>
        <mxCell id="gldtsVEIOEpTuRQxnS90-16" style="edgeStyle=orthogonalEdgeStyle;rounded=0;orthogonalLoop=1;jettySize=auto;html=1;entryX=0;entryY=0.5;entryDx=0;entryDy=0;" edge="1" parent="1" source="gldtsVEIOEpTuRQxnS90-17" target="gldtsVEIOEpTuRQxnS90-22">
          <mxGeometry relative="1" as="geometry" />
        </mxCell>
        <mxCell id="gldtsVEIOEpTuRQxnS90-17" value="Получена предоплата" style="rhombus;whiteSpace=wrap;html=1;" vertex="1" parent="1">
          <mxGeometry x="878" y="3079" width="80" height="80" as="geometry" />
        </mxCell>
        <mxCell id="gldtsVEIOEpTuRQxnS90-18" style="edgeStyle=orthogonalEdgeStyle;rounded=0;orthogonalLoop=1;jettySize=auto;html=1;exitX=0.5;exitY=1;exitDx=0;exitDy=0;entryX=0.5;entryY=0;entryDx=0;entryDy=0;" edge="1" parent="1" source="gldtsVEIOEpTuRQxnS90-19" target="gldtsVEIOEpTuRQxnS90-33">
          <mxGeometry relative="1" as="geometry" />
        </mxCell>
        <mxCell id="gldtsVEIOEpTuRQxnS90-19" value="Оповещение клиента о том, что деньги не поступили" style="rounded=1;whiteSpace=wrap;html=1;" vertex="1" parent="1">
          <mxGeometry x="384" y="3089" width="120" height="60" as="geometry" />
        </mxCell>
        <mxCell id="gldtsVEIOEpTuRQxnS90-20" style="edgeStyle=orthogonalEdgeStyle;rounded=0;orthogonalLoop=1;jettySize=auto;html=1;exitX=0.5;exitY=1;exitDx=0;exitDy=0;" edge="1" parent="1" source="gldtsVEIOEpTuRQxnS90-22" target="gldtsVEIOEpTuRQxnS90-25">
          <mxGeometry relative="1" as="geometry" />
        </mxCell>
        <mxCell id="gldtsVEIOEpTuRQxnS90-21" style="edgeStyle=orthogonalEdgeStyle;rounded=0;orthogonalLoop=1;jettySize=auto;html=1;exitX=1;exitY=0.5;exitDx=0;exitDy=0;entryX=0;entryY=0.5;entryDx=0;entryDy=0;" edge="1" parent="1" source="gldtsVEIOEpTuRQxnS90-22" target="gldtsVEIOEpTuRQxnS90-35">
          <mxGeometry relative="1" as="geometry" />
        </mxCell>
        <mxCell id="gldtsVEIOEpTuRQxnS90-22" value="Продукция есть на складе?" style="rhombus;whiteSpace=wrap;html=1;" vertex="1" parent="1">
          <mxGeometry x="1074" y="3079" width="80" height="80" as="geometry" />
        </mxCell>
        <mxCell id="gldtsVEIOEpTuRQxnS90-23" style="edgeStyle=orthogonalEdgeStyle;rounded=0;orthogonalLoop=1;jettySize=auto;html=1;entryX=1;entryY=0.5;entryDx=0;entryDy=0;" edge="1" parent="1" source="gldtsVEIOEpTuRQxnS90-25" target="gldtsVEIOEpTuRQxnS90-43">
          <mxGeometry relative="1" as="geometry" />
        </mxCell>
        <mxCell id="gldtsVEIOEpTuRQxnS90-24" value="Процесс доставки" style="edgeLabel;html=1;align=center;verticalAlign=middle;resizable=0;points=[];" vertex="1" connectable="0" parent="gldtsVEIOEpTuRQxnS90-23">
          <mxGeometry x="0.1243" y="-4" relative="1" as="geometry">
            <mxPoint as="offset" />
          </mxGeometry>
        </mxCell>
        <mxCell id="gldtsVEIOEpTuRQxnS90-25" value="Готово к отгрузке" style="rounded=1;whiteSpace=wrap;html=1;" vertex="1" parent="1">
          <mxGeometry x="858" y="3339" width="120" height="60" as="geometry" />
        </mxCell>
        <mxCell id="gldtsVEIOEpTuRQxnS90-26" value="" style="ellipse;whiteSpace=wrap;html=1;aspect=fixed;fillColor=#f8cecc;strokeColor=#b85450;" vertex="1" parent="1">
          <mxGeometry x="419" y="2729" width="50" height="50" as="geometry" />
        </mxCell>
        <mxCell id="gldtsVEIOEpTuRQxnS90-27" style="edgeStyle=orthogonalEdgeStyle;rounded=0;orthogonalLoop=1;jettySize=auto;html=1;exitX=0.5;exitY=1;exitDx=0;exitDy=0;" edge="1" parent="1" source="gldtsVEIOEpTuRQxnS90-28" target="gldtsVEIOEpTuRQxnS90-5">
          <mxGeometry relative="1" as="geometry" />
        </mxCell>
        <mxCell id="gldtsVEIOEpTuRQxnS90-28" value="" style="ellipse;whiteSpace=wrap;html=1;aspect=fixed;fillColor=#d5e8d4;strokeColor=#82b366;" vertex="1" parent="1">
          <mxGeometry x="419" y="2269" width="50" height="50" as="geometry" />
        </mxCell>
        <mxCell id="gldtsVEIOEpTuRQxnS90-29" style="edgeStyle=orthogonalEdgeStyle;rounded=0;orthogonalLoop=1;jettySize=auto;html=1;exitX=0.5;exitY=1;exitDx=0;exitDy=0;entryX=0.5;entryY=0;entryDx=0;entryDy=0;" edge="1" parent="1" source="gldtsVEIOEpTuRQxnS90-32" target="gldtsVEIOEpTuRQxnS90-17">
          <mxGeometry relative="1" as="geometry" />
        </mxCell>
        <mxCell id="gldtsVEIOEpTuRQxnS90-30" style="edgeStyle=orthogonalEdgeStyle;rounded=0;orthogonalLoop=1;jettySize=auto;html=1;exitX=0;exitY=0.5;exitDx=0;exitDy=0;" edge="1" parent="1" source="gldtsVEIOEpTuRQxnS90-32">
          <mxGeometry relative="1" as="geometry">
            <mxPoint x="290" y="2885" as="targetPoint" />
          </mxGeometry>
        </mxCell>
        <mxCell id="gldtsVEIOEpTuRQxnS90-31" value="Отказ клиента" style="edgeLabel;html=1;align=center;verticalAlign=middle;resizable=0;points=[];" vertex="1" connectable="0" parent="gldtsVEIOEpTuRQxnS90-30">
          <mxGeometry x="0.2816" y="2" relative="1" as="geometry">
            <mxPoint x="16" y="-2" as="offset" />
          </mxGeometry>
        </mxCell>
        <mxCell id="gldtsVEIOEpTuRQxnS90-32" value="Внесение предоплаты" style="rounded=1;whiteSpace=wrap;html=1;" vertex="1" parent="1">
          <mxGeometry x="384" y="2854" width="120" height="60" as="geometry" />
        </mxCell>
        <mxCell id="gldtsVEIOEpTuRQxnS90-33" value="" style="ellipse;whiteSpace=wrap;html=1;aspect=fixed;fillColor=#f8cecc;strokeColor=#b85450;" vertex="1" parent="1">
          <mxGeometry x="419" y="3179" width="50" height="50" as="geometry" />
        </mxCell>
        <mxCell id="gldtsVEIOEpTuRQxnS90-34" style="edgeStyle=orthogonalEdgeStyle;rounded=0;orthogonalLoop=1;jettySize=auto;html=1;exitX=0.5;exitY=1;exitDx=0;exitDy=0;entryX=0.5;entryY=0;entryDx=0;entryDy=0;" edge="1" parent="1" source="gldtsVEIOEpTuRQxnS90-35" target="gldtsVEIOEpTuRQxnS90-41">
          <mxGeometry relative="1" as="geometry" />
        </mxCell>
        <mxCell id="gldtsVEIOEpTuRQxnS90-35" value="Закупка материлов" style="rounded=1;whiteSpace=wrap;html=1;" vertex="1" parent="1">
          <mxGeometry x="1264" y="3089" width="120" height="60" as="geometry" />
        </mxCell>
        <mxCell id="gldtsVEIOEpTuRQxnS90-36" style="edgeStyle=orthogonalEdgeStyle;rounded=0;orthogonalLoop=1;jettySize=auto;html=1;entryX=1;entryY=0.5;entryDx=0;entryDy=0;" edge="1" parent="1" source="gldtsVEIOEpTuRQxnS90-37" target="gldtsVEIOEpTuRQxnS90-25">
          <mxGeometry relative="1" as="geometry" />
        </mxCell>
        <mxCell id="gldtsVEIOEpTuRQxnS90-37" value="Запуск производства" style="rounded=1;whiteSpace=wrap;html=1;" vertex="1" parent="1">
          <mxGeometry x="1264" y="3339" width="120" height="60" as="geometry" />
        </mxCell>
        <mxCell id="gldtsVEIOEpTuRQxnS90-38" style="edgeStyle=orthogonalEdgeStyle;rounded=0;orthogonalLoop=1;jettySize=auto;html=1;exitX=0.5;exitY=1;exitDx=0;exitDy=0;entryX=0.5;entryY=0;entryDx=0;entryDy=0;" edge="1" parent="1" source="gldtsVEIOEpTuRQxnS90-41" target="gldtsVEIOEpTuRQxnS90-37">
          <mxGeometry relative="1" as="geometry" />
        </mxCell>
        <mxCell id="gldtsVEIOEpTuRQxnS90-39" style="edgeStyle=orthogonalEdgeStyle;rounded=0;orthogonalLoop=1;jettySize=auto;html=1;entryX=1;entryY=0.5;entryDx=0;entryDy=0;" edge="1" parent="1" source="gldtsVEIOEpTuRQxnS90-41" target="gldtsVEIOEpTuRQxnS90-35">
          <mxGeometry relative="1" as="geometry">
            <Array as="points">
              <mxPoint x="1474" y="3219" />
              <mxPoint x="1474" y="3119" />
            </Array>
          </mxGeometry>
        </mxCell>
        <mxCell id="gldtsVEIOEpTuRQxnS90-40" value="Нет" style="edgeLabel;html=1;align=center;verticalAlign=middle;resizable=0;points=[];" vertex="1" connectable="0" parent="gldtsVEIOEpTuRQxnS90-39">
          <mxGeometry x="-0.5132" y="3" relative="1" as="geometry">
            <mxPoint as="offset" />
          </mxGeometry>
        </mxCell>
        <mxCell id="gldtsVEIOEpTuRQxnS90-41" value="Материалов хватает" style="rhombus;whiteSpace=wrap;html=1;" vertex="1" parent="1">
          <mxGeometry x="1284" y="3179" width="80" height="80" as="geometry" />
        </mxCell>
        <mxCell id="gldtsVEIOEpTuRQxnS90-42" style="edgeStyle=orthogonalEdgeStyle;rounded=0;orthogonalLoop=1;jettySize=auto;html=1;exitX=0.5;exitY=1;exitDx=0;exitDy=0;entryX=0.5;entryY=0;entryDx=0;entryDy=0;" edge="1" parent="1" source="gldtsVEIOEpTuRQxnS90-43" target="gldtsVEIOEpTuRQxnS90-45">
          <mxGeometry relative="1" as="geometry" />
        </mxCell>
        <mxCell id="gldtsVEIOEpTuRQxnS90-43" value="Проверка качества" style="rounded=1;whiteSpace=wrap;html=1;" vertex="1" parent="1">
          <mxGeometry x="384" y="3339" width="120" height="60" as="geometry" />
        </mxCell>
        <mxCell id="gldtsVEIOEpTuRQxnS90-44" style="edgeStyle=orthogonalEdgeStyle;rounded=0;orthogonalLoop=1;jettySize=auto;html=1;exitX=0.5;exitY=1;exitDx=0;exitDy=0;entryX=0.5;entryY=0;entryDx=0;entryDy=0;" edge="1" parent="1" source="gldtsVEIOEpTuRQxnS90-45" target="gldtsVEIOEpTuRQxnS90-47">
          <mxGeometry relative="1" as="geometry" />
        </mxCell>
        <mxCell id="gldtsVEIOEpTuRQxnS90-45" value="Полная оплата" style="rounded=1;whiteSpace=wrap;html=1;" vertex="1" parent="1">
          <mxGeometry x="384" y="3439" width="120" height="60" as="geometry" />
        </mxCell>
        <mxCell id="gldtsVEIOEpTuRQxnS90-46" style="edgeStyle=orthogonalEdgeStyle;rounded=0;orthogonalLoop=1;jettySize=auto;html=1;exitX=0.5;exitY=1;exitDx=0;exitDy=0;entryX=0.5;entryY=0;entryDx=0;entryDy=0;" edge="1" parent="1" source="gldtsVEIOEpTuRQxnS90-47" target="gldtsVEIOEpTuRQxnS90-48">
          <mxGeometry relative="1" as="geometry" />
        </mxCell>
        <mxCell id="gldtsVEIOEpTuRQxnS90-47" value="Обновление статистики" style="rounded=1;whiteSpace=wrap;html=1;" vertex="1" parent="1">
          <mxGeometry x="910" y="3545" width="120" height="60" as="geometry" />
        </mxCell>
        <mxCell id="gldtsVEIOEpTuRQxnS90-48" value="" style="ellipse;whiteSpace=wrap;html=1;aspect=fixed;fillColor=#f8cecc;strokeColor=#b85450;" vertex="1" parent="1">
          <mxGeometry x="945" y="3645" width="50" height="50" as="geometry" />
        </mxCell>
        <mxCell id="gldtsVEIOEpTuRQxnS90-64" value="" style="rounded=0;whiteSpace=wrap;html=1;fillColor=#f8cecc;strokeColor=#b85450;opacity=30;" vertex="1" parent="1">
          <mxGeometry x="1004" y="3059" width="520" height="386" as="geometry" />
        </mxCell>
        <mxCell id="gldtsVEIOEpTuRQxnS90-65" value="ПОДПРОЦ" style="text;html=1;align=center;verticalAlign=middle;whiteSpace=wrap;rounded=0;" vertex="1" parent="1">
          <mxGeometry x="1434" y="3399" width="60" height="30" as="geometry" />
        </mxCell>
        <mxCell id="gldtsVEIOEpTuRQxnS90-66" value="" style="endArrow=classic;html=1;rounded=0;exitX=0.5;exitY=1;exitDx=0;exitDy=0;entryX=1;entryY=0.5;entryDx=0;entryDy=0;" edge="1" parent="1" source="gldtsVEIOEpTuRQxnS90-10" target="gldtsVEIOEpTuRQxnS90-13">
          <mxGeometry width="50" height="50" relative="1" as="geometry">
            <mxPoint x="888.9999999999995" y="2615" as="sourcePoint" />
            <mxPoint x="900" y="2705" as="targetPoint" />
            <Array as="points">
              <mxPoint x="920" y="2635" />
            </Array>
          </mxGeometry>
        </mxCell>
        <mxCell id="gldtsVEIOEpTuRQxnS90-67" value="Нет предоплаты" style="edgeLabel;html=1;align=center;verticalAlign=middle;resizable=0;points=[];" vertex="1" connectable="0" parent="gldtsVEIOEpTuRQxnS90-66">
          <mxGeometry x="0.2483" y="1" relative="1" as="geometry">
            <mxPoint x="1" as="offset" />
          </mxGeometry>
        </mxCell>
        <mxCell id="gldtsVEIOEpTuRQxnS90-68" value="" style="endArrow=classic;html=1;rounded=0;exitX=0.75;exitY=1;exitDx=0;exitDy=0;entryX=1;entryY=0.5;entryDx=0;entryDy=0;" edge="1" parent="1" source="gldtsVEIOEpTuRQxnS90-10" target="gldtsVEIOEpTuRQxnS90-32">
          <mxGeometry width="50" height="50" relative="1" as="geometry">
            <mxPoint x="916.9999999999995" y="2615" as="sourcePoint" />
            <mxPoint x="900" y="2815" as="targetPoint" />
            <Array as="points">
              <mxPoint x="947" y="2884" />
            </Array>
          </mxGeometry>
        </mxCell>
        <mxCell id="gldtsVEIOEpTuRQxnS90-69" value="На предоплату" style="edgeLabel;html=1;align=center;verticalAlign=middle;resizable=0;points=[];" vertex="1" connectable="0" parent="gldtsVEIOEpTuRQxnS90-68">
          <mxGeometry x="0.1781" y="-4" relative="1" as="geometry">
            <mxPoint as="offset" />
          </mxGeometry>
        </mxCell>
        <mxCell id="gldtsVEIOEpTuRQxnS90-70" value="" style="ellipse;whiteSpace=wrap;html=1;aspect=fixed;fillColor=#f8cecc;strokeColor=#b85450;" vertex="1" parent="1">
          <mxGeometry x="240" y="2860" width="50" height="50" as="geometry" />
        </mxCell>
        <mxCell id="gldtsVEIOEpTuRQxnS90-71" value="&lt;font style=&quot;font-size: 18px;&quot;&gt;СТАТУС В РАБОТЕ&lt;/font&gt;" style="text;html=1;align=center;verticalAlign=middle;whiteSpace=wrap;rounded=0;fillColor=#FF4209;" vertex="1" parent="1">
          <mxGeometry x="1148" y="3237" width="216" height="30" as="geometry" />
        </mxCell>
      </root>
    </mxGraphModel>
  </diagram>
</mxfile>
